<?xml version="1.0" encoding="utf-8"?>
<!-- Generator: Adobe Illustrator 15.1.0, SVG Export Plug-In . SVG Version: 6.00 Build 0)  -->
<!DOCTYPE svg PUBLIC "-//W3C//DTD SVG 1.1//EN" "http://www.w3.org/Graphics/SVG/1.1/DTD/svg11.dtd">
<svg version="1.1" id="Layer_1" xmlns="http://www.w3.org/2000/svg" xmlns:xlink="http://www.w3.org/1999/xlink" x="0px" y="0px"
	 width="157.927px" height="73.781px" viewBox="0 0 157.927 73.781" enable-background="new 0 0 157.927 73.781"
	 xml:space="preserve">
<g>
	<path fill="#3C3C3B" d="M6.677,36.02H3.608V11.912h3.069V36.02z M8.673,13.178c1.559-0.974,3.458-1.51,5.406-1.51
		c5.503,0,7.988,3.409,7.988,8.816V36.02h-3.069V20.921c0-4.383-2.045-6.429-5.455-6.429c-1.558,0-3.117,0.39-4.87,1.315V13.178z
		 M22.408,13.227c1.656-0.974,4.139-1.656,6.283-1.656c5.746,0,8.376,3.165,8.376,8.474V36.02H34V20.775
		c0-4.334-1.802-6.379-5.455-6.379c-1.509,0-3.312,0.39-5.064,1.364C23.139,14.883,22.798,14.055,22.408,13.227z"/>
	<path fill="#3C3C3B" d="M55.918,34.753c-1.655,1.023-3.75,1.51-5.698,1.51c-4.627,0-7.451-2.581-7.451-8.329V11.912h3.068v14.855
		c0,4.188,1.169,6.623,5.065,6.623c1.705,0,3.604-0.487,5.016-1.315V34.753z M57.916,11.912h3.019V36.02h-3.019V11.912z"/>
	<path fill="#3C3C3B" d="M73.989,36.361c-3.312-0.098-6.185-1.12-8.767-3.263l1.705-2.386c1.997,1.704,4.286,2.629,7.062,2.824
		V36.361z M75.987,33.536c2.629-0.244,5.064-1.412,5.064-4.237c0-2.581-2.289-3.653-5.99-4.285
		c-4.578-0.829-8.572-1.851-8.572-6.478c0-3.945,3.118-6.575,7.5-6.916v2.776c-2.776,0.195-4.529,1.802-4.529,3.944
		c0,2.241,1.509,3.117,6.332,3.994c4.432,0.828,8.327,2.338,8.327,6.915c0,3.849-3.067,6.869-8.132,7.063V33.536z M75.987,11.619
		c2.971,0.146,5.405,0.974,7.354,2.386l-1.412,2.338c-1.705-1.12-3.75-1.851-5.941-1.996V11.619z"/>
	<path fill="#3C3C3B" d="M86.507,11.863h3.604V5.872h3.021v5.991h5.941v2.63H86.507V11.863z M93.131,16.441v13.198
		c0,2.825,0.925,3.652,3.36,3.652h2.727v2.728h-3.701c-3.75,0-5.406-1.899-5.406-5.552V16.441H93.131z"/>
	<path fill="#3C3C3B" d="M148.591,35.241c-1.218,0.73-3.312,1.022-4.918,1.022c-6.868,0-8.914-5.163-8.914-11.689
		c0-6.186,1.705-12.955,9.352-12.955c1.412,0,3.215,0.244,4.48,1.023v2.727c-1.218-0.633-2.922-0.926-4.335-0.926
		c-5.6,0-6.38,5.796-6.38,10.033c0,4.188,0.73,8.961,6.186,8.961c1.559,0,3.166-0.243,4.529-0.973V35.241z M150.541,2.562h3.067
		V36.02h-3.067V2.562z"/>
	<path fill="#3C3C3B" d="M12.375,72.44c-3.313-0.098-6.186-1.12-8.768-3.263l1.705-2.387c1.997,1.705,4.286,2.63,7.063,2.825V72.44z
		 M14.372,69.616c2.63-0.244,5.065-1.412,5.065-4.238c0-2.58-2.289-3.652-5.991-4.285c-4.578-0.828-8.572-1.852-8.572-6.478
		c0-3.945,3.117-6.575,7.501-6.916v2.776c-2.776,0.194-4.53,1.801-4.53,3.945c0,2.24,1.51,3.116,6.331,3.993
		c4.433,0.827,8.329,2.337,8.329,6.915c0,3.849-3.068,6.868-8.134,7.063V69.616z M14.372,47.699
		c2.971,0.146,5.406,0.974,7.354,2.387l-1.413,2.337c-1.704-1.119-3.75-1.851-5.941-1.996V47.699z"/>
	<path fill="#3C3C3B" d="M26.794,60.167c0-8.863,4.481-12.225,8.815-12.419v2.824c-3.506,0.342-5.699,3.36-5.699,9.448
		c0,6.186,1.9,9.596,7.208,9.596c2.29,0,4.19-0.779,5.796-2.143l1.851,2.24c-2.191,1.898-5.016,2.678-7.743,2.678
		C32.103,72.391,26.794,70.249,26.794,60.167z M32.054,58.317h11.008c-0.147-4.677-2.144-7.403-5.456-7.745v-2.824
		c5.212,0.194,8.62,4.627,8.62,10.764v2.386H32.054V58.317z"/>
	<path fill="#3C3C3B" d="M50.612,60.167c0-8.863,4.48-12.225,8.816-12.419v2.824c-3.508,0.342-5.699,3.36-5.699,9.448
		c0,6.186,1.899,9.596,7.208,9.596c2.289,0,4.188-0.779,5.796-2.143l1.851,2.24c-2.191,1.898-5.016,2.678-7.744,2.678
		C55.92,72.391,50.612,70.249,50.612,60.167z M55.872,58.317h11.007c-0.146-4.677-2.143-7.403-5.455-7.745v-2.824
		c5.211,0.194,8.62,4.627,8.62,10.764v2.386H55.872V58.317z"/>
	<path fill="#3C3C3B" d="M88.115,71.32c-1.217,0.731-3.313,1.022-4.92,1.022c-6.867,0-8.912-5.162-8.912-11.688
		c0-6.186,1.705-12.956,9.352-12.956c1.412,0,3.213,0.243,4.48,1.022v2.728c-1.217-0.632-2.922-0.926-4.335-0.926
		c-5.601,0-6.38,5.796-6.38,10.034c0,4.188,0.73,8.961,6.186,8.961c1.559,0,3.165-0.244,4.529-0.975V71.32z M90.062,38.642h3.069
		V72.1h-3.069V38.642z"/>
	<g>
		<path fill="#FCB93D" d="M112.776,31.007c0,2.761-2.239,5.001-5.002,5.001s-5.001-2.24-5.001-5.001
			c0-2.763,2.238-5.002,5.001-5.002S112.776,28.244,112.776,31.007"/>
		<path fill="#FCB93D" d="M131.554,16.859c0,2.763-2.237,5.002-5.001,5.002s-5.002-2.239-5.002-5.002c0-2.761,2.238-5,5.002-5
			S131.554,14.098,131.554,16.859"/>
	</g>
	<path fill="#3C3C3B" d="M118.588,28.314v-4.322v-4.385c0-5.823-3.381-7.686-7.938-7.949v2.909c3.473,0.37,4.871,2.23,4.871,5.138
		v4.288v4.419c0,5.823,3.381,7.686,7.939,7.95v-2.909C119.988,33.081,118.588,31.221,118.588,28.314z"/>
</g>
</svg>
